ffmpeg started on 2025-06-23 at 19:30:56
Report written to "D:\Convert\FFMetrics\reports\psnr_report-6.txt"
Log level: 32
Command line:
ffmpeg -hide_banner -nostdin -i "G:\\\xc0\xed\xe8\xec\xe5\\[\xd2\xee\xef-4]\\\xcc\xee\xe6\xe5\xf2, \xff \xe2\xf1\xf2\xf0\xe5\xf7\xf3 \xf2\xe5\xe1\xff \xe2 \xef\xee\xe4\xe7\xe5\xec\xe5\xeb\xfc\xe5\\\xd2\xc2-1\\DanMachi_[01]_[AniLibria_TV]_[HDTVRip_720p]_HEVC.mkv" -i "G:\\\xc0\xed\xe8\xec\xe5\\[\xd2\xee\xef-4]\\\xcc\xee\xe6\xe5\xf2, \xff \xe2\xf1\xf2\xf0\xe5\xf7\xf3 \xf2\xe5\xe1\xff \xe2 \xef\xee\xe4\xe7\xe5\xec\xe5\xeb\xfc\xe5\\\xd2\xc2-1\\DanMachi_[01]_[AniLibria_TV]_[HDTVRip_720p].mkv" -lavfi "[0:v]settb=AVTB,setpts=PTS-STARTPTS,format=pix_fmts=yuv420p10,fps=24000/1001,scale=1280:720:flags=bicubic[main];[1:v]settb=AVTB,setpts=PTS-STARTPTS,format=pix_fmts=yuv420p,fps=24000/1001,scale=1280:720:flags=bicubic[ref];[main][ref]psnr=eof_action=endall:stats_file='D\\:/Convert/FFMetrics/logs/psnr_logfile-6.txt'" -f null -
Input #0, matroska,webm, from 'G:\Аниме\[Топ-4]\Может, я встречу тебя в подземелье\ТВ-1\DanMachi_[01]_[AniLibria_TV]_[HDTVRip_720p]_HEVC.mkv':
  Metadata:
    ENCODER         : Lavf61.7.100
  Duration: 00:23:42.06, start: -0.021000, bitrate: 805 kb/s
  Stream #0:0(jpn): Video: hevc (Main 10), yuv420p10le(tv, bt709, progressive), 1280x720 [SAR 1:1 DAR 16:9], 23.98 fps, 23.98 tbr, 1k tbn (default)
      Metadata:
        title           : Original [HorribleSubs]
        ENCODER         : Lavc61.19.100 libx265
        BPS             : 607683
        DURATION        : 00:23:42.005708375
        NUMBER_OF_FRAMES: 34094
        NUMBER_OF_BYTES : 108016053
        _STATISTICS_WRITING_APP: mkvpropedit v66.0.0 ('Josie') 64-bit
        _STATISTICS_WRITING_DATE_UTC: 2025-06-23 07:19:17
        _STATISTICS_TAGS: BPS DURATION NUMBER_OF_FRAMES NUMBER_OF_BYTES
  Stream #0:1(rus): Audio: aac (LC), 48000 Hz, stereo, fltp (default)
      Metadata:
        title           : Metacarmex & Say
        ENCODER         : Lavc61.19.100 aac
        BPS             : 194013
        DURATION        : 00:23:42.037000000
        NUMBER_OF_FRAMES: 66659
        NUMBER_OF_BYTES : 34486866
        _STATISTICS_WRITING_APP: mkvpropedit v66.0.0 ('Josie') 64-bit
        _STATISTICS_WRITING_DATE_UTC: 2025-06-23 07:19:17
        _STATISTICS_TAGS: BPS DURATION NUMBER_OF_FRAMES NUMBER_OF_BYTES
  Stream #0:2(rus): Subtitle: ass (ssa) (default)
      Metadata:
        title           : Надписи
        BPS             : 2
        DURATION        : 00:21:46.470000000
        NUMBER_OF_FRAMES: 5
        NUMBER_OF_BYTES : 482
        _STATISTICS_WRITING_APP: mkvpropedit v66.0.0 ('Josie') 64-bit
        _STATISTICS_WRITING_DATE_UTC: 2025-06-23 07:19:17
        _STATISTICS_TAGS: BPS DURATION NUMBER_OF_FRAMES NUMBER_OF_BYTES
  Stream #0:3(rus): Subtitle: ass (ssa)
      Metadata:
        title           : Полные
        BPS             : 144
        DURATION        : 00:23:38.050000000
        NUMBER_OF_FRAMES: 386
        NUMBER_OF_BYTES : 25685
        _STATISTICS_WRITING_APP: mkvpropedit v66.0.0 ('Josie') 64-bit
        _STATISTICS_WRITING_DATE_UTC: 2025-06-23 07:19:17
        _STATISTICS_TAGS: BPS DURATION NUMBER_OF_FRAMES NUMBER_OF_BYTES
Input #1, matroska,webm, from 'G:\Аниме\[Топ-4]\Может, я встречу тебя в подземелье\ТВ-1\DanMachi_[01]_[AniLibria_TV]_[HDTVRip_720p].mkv':
  Metadata:
    encoder         : libebml v1.4.2 + libmatroska v1.6.4
    creation_time   : 2025-01-14T16:48:44.000000Z
  Duration: 00:23:42.04, start: 0.000000, bitrate: 1968 kb/s
  Stream #1:0(jpn): Video: h264 (High), yuv420p(progressive), 1280x720, SAR 1:1 DAR 16:9, 23.98 fps, 23.98 tbr, 1k tbn (default)
      Metadata:
        title           : Original [HorribleSubs]
        BPS             : 1770796
        DURATION        : 00:23:42.006000000
        NUMBER_OF_FRAMES: 34094
        NUMBER_OF_BYTES : 314760422
        _STATISTICS_WRITING_APP: mkvmerge v66.0.0 ('Josie') 64-bit
        _STATISTICS_WRITING_DATE_UTC: 2025-01-14 16:48:44
        _STATISTICS_TAGS: BPS DURATION NUMBER_OF_FRAMES NUMBER_OF_BYTES
  Stream #1:1(rus): Audio: aac (LC), 48000 Hz, stereo, fltp (default)
      Metadata:
        title           : Metacarmex & Say
        BPS             : 192089
        DURATION        : 00:23:42.037000000
        NUMBER_OF_FRAMES: 66658
        NUMBER_OF_BYTES : 34144812
        _STATISTICS_WRITING_APP: mkvmerge v66.0.0 ('Josie') 64-bit
        _STATISTICS_WRITING_DATE_UTC: 2025-01-14 16:48:44
        _STATISTICS_TAGS: BPS DURATION NUMBER_OF_FRAMES NUMBER_OF_BYTES
  Stream #1:2(rus): Subtitle: ass (ssa) (default)
      Metadata:
        title           : Надписи
        BPS             : 2
        DURATION        : 00:21:46.470000000
        NUMBER_OF_FRAMES: 5
        NUMBER_OF_BYTES : 482
        _STATISTICS_WRITING_APP: mkvmerge v66.0.0 ('Josie') 64-bit
        _STATISTICS_WRITING_DATE_UTC: 2025-01-14 16:48:44
        _STATISTICS_TAGS: BPS DURATION NUMBER_OF_FRAMES NUMBER_OF_BYTES
  Stream #1:3(rus): Subtitle: ass (ssa)
      Metadata:
        title           : Полные
        BPS             : 144
        DURATION        : 00:23:38.050000000
        NUMBER_OF_FRAMES: 386
        NUMBER_OF_BYTES : 25685
        _STATISTICS_WRITING_APP: mkvmerge v66.0.0 ('Josie') 64-bit
        _STATISTICS_WRITING_DATE_UTC: 2025-01-14 16:48:44
        _STATISTICS_TAGS: BPS DURATION NUMBER_OF_FRAMES NUMBER_OF_BYTES
  Stream #1:4: Attachment: ttf
      Metadata:
        filename        : TkhO4vNj.ttf
        mimetype        : application/x-truetype-font
  Stream #1:5: Attachment: ttf
      Metadata:
        filename        : bonzai.ttf
        mimetype        : application/x-truetype-font
  Stream #1:6: Attachment: ttf
      Metadata:
        filename        : ChinaCyr.ttf
        mimetype        : application/x-truetype-font
  Stream #1:7: Attachment: ttf
      Metadata:
        filename        : OpenSans-Semibold.ttf
        mimetype        : application/x-truetype-font
Stream mapping:
  Stream #0:0 (hevc) -> settb:default
  Stream #1:0 (h264) -> settb:default
  psnr:default -> Stream #0:0 (wrapped_avframe)
  Stream #0:1 -> #0:1 (aac (native) -> pcm_s16le (native))
[swscaler @ 000001bf4d279100] No accelerated colorspace conversion found from yuv420p to bgr48le.
[swscaler @ 000001bf4d48ffc0] No accelerated colorspace conversion found from yuv420p to bgr48le.
[swscaler @ 000001bf4d59ab40] No accelerated colorspace conversion found from yuv420p to bgr48le.
[swscaler @ 000001bf4d74e380] No accelerated colorspace conversion found from yuv420p to bgr48le.
[swscaler @ 000001bf4d855ac0] No accelerated colorspace conversion found from yuv420p to bgr48le.
[swscaler @ 000001bf4d922e00] No accelerated colorspace conversion found from yuv420p to bgr48le.
[swscaler @ 000001bf4d97e040] No accelerated colorspace conversion found from yuv420p to bgr48le.
[swscaler @ 000001bf4da07040] No accelerated colorspace conversion found from yuv420p to bgr48le.
[swscaler @ 000001bf4da64740] No accelerated colorspace conversion found from yuv420p to bgr48le.
[swscaler @ 000001bf4dada040] No accelerated colorspace conversion found from yuv420p to bgr48le.
[swscaler @ 000001bf4db5c040] No accelerated colorspace conversion found from yuv420p to bgr48le.
[swscaler @ 000001bf4dbc2040] No accelerated colorspace conversion found from yuv420p to bgr48le.
[swscaler @ 000001bf4dbdc000] No accelerated colorspace conversion found from yuv420p to bgr48le.
[swscaler @ 000001bf51ca5040] No accelerated colorspace conversion found from yuv420p to bgr48le.
[swscaler @ 000001bf51d05040] No accelerated colorspace conversion found from yuv420p to bgr48le.
[swscaler @ 000001bf51d35880] No accelerated colorspace conversion found from yuv420p to bgr48le.
Output #0, null, to 'pipe:':
  Metadata:
    encoder         : Lavf61.7.100
  Stream #0:0: Video: wrapped_avframe, yuv420p10le(tv, bt709, progressive), 1280x720 [SAR 1:1 DAR 16:9], q=2-31, 200 kb/s, 23.98 fps, 23.98 tbn
      Metadata:
        encoder         : Lavc61.19.100 wrapped_avframe
  Stream #0:1(rus): Audio: pcm_s16le, 48000 Hz, stereo, s16, 1536 kb/s (default)
      Metadata:
        title           : Metacarmex & Say
        _STATISTICS_TAGS: BPS DURATION NUMBER_OF_FRAMES NUMBER_OF_BYTES
        BPS             : 194013
        DURATION        : 00:23:42.037000000
        NUMBER_OF_FRAMES: 66659
        NUMBER_OF_BYTES : 34486866
        _STATISTICS_WRITING_APP: mkvpropedit v66.0.0 ('Josie') 64-bit
        _STATISTICS_WRITING_DATE_UTC: 2025-06-23 07:19:17
        encoder         : Lavc61.19.100 pcm_s16le
frame=   78 fps=0.0 q=-0.0 size=N/A time=00:00:03.25 bitrate=N/A speed=6.31x    frame=  166 fps=162 q=-0.0 size=N/A time=00:00:06.92 bitrate=N/A speed=6.76x    frame=  256 fps=165 q=-0.0 size=N/A time=00:00:10.67 bitrate=N/A speed=6.88x    frame=  347 fps=167 q=-0.0 size=N/A time=00:00:14.47 bitrate=N/A speed=6.97x    frame=  441 fps=170 q=-0.0 size=N/A time=00:00:18.39 bitrate=N/A speed=7.11x    frame=  529 fps=171 q=-0.0 size=N/A time=00:00:22.06 bitrate=N/A speed=7.12x    frame=  630 fps=174 q=-0.0 size=N/A time=00:00:26.27 bitrate=N/A speed=7.25x    frame=  725 fps=175 q=-0.0 size=N/A time=00:00:30.23 bitrate=N/A speed=7.31x    frame=  818 fps=176 q=-0.0 size=N/A time=00:00:34.11 bitrate=N/A speed=7.33x    frame=  909 fps=176 q=-0.0 size=N/A time=00:00:37.91 bitrate=N/A speed=7.34x    frame=  998 fps=176 q=-0.0 size=N/A time=00:00:41.62 bitrate=N/A speed=7.33x    frame= 1107 fps=178 q=-0.0 size=N/A time=00:00:46.17 bitrate=N/A speed=7.44x    frame= 1200 fps=179 q=-0.0 size=N/A time=00:00:50.05 bitrate=N/A speed=7.46x    frame= 1292 fps=179 q=-0.0 size=N/A time=00:00:53.88 bitrate=N/A speed=7.45x    frame= 1380 fps=178 q=-0.0 size=N/A time=00:00:57.55 bitrate=N/A speed=7.43x    frame= 1476 fps=179 q=-0.0 size=N/A time=00:01:01.56 bitrate=N/A speed=7.45x    frame= 1568 fps=179 q=-0.0 size=N/A time=00:01:05.39 bitrate=N/A speed=7.45x    frame= 1676 fps=180 q=-0.0 size=N/A time=00:01:09.90 bitrate=N/A speed=7.52x    frame= 1779 fps=181 q=-0.0 size=N/A time=00:01:14.19 bitrate=N/A speed=7.57x    frame= 1881 fps=182 q=-0.0 size=N/A time=00:01:18.45 bitrate=N/A speed= 7.6x    frame= 1977 fps=182 q=-0.0 size=N/A time=00:01:22.45 bitrate=N/A speed=7.61x    frame= 2079 fps=183 q=-0.0 size=N/A time=00:01:26.71 bitrate=N/A speed=7.63x    frame= 2175 fps=183 q=-0.0 size=N/A time=00:01:30.71 bitrate=N/A speed=7.64x    frame= 2270 fps=183 q=-0.0 size=N/A time=00:01:34.67 bitrate=N/A speed=7.64x    frame= 2365 fps=183 q=-0.0 size=N/A time=00:01:38.64 bitrate=N/A speed=7.65x    frame= 2467 fps=184 q=-0.0 size=N/A time=00:01:42.89 bitrate=N/A speed=7.67x    frame= 2567 fps=184 q=-0.0 size=N/A time=00:01:47.06 bitrate=N/A speed=7.68x    frame= 2650 fps=183 q=-0.0 size=N/A time=00:01:50.52 bitrate=N/A speed=7.65x    frame= 2755 fps=184 q=-0.0 size=N/A time=00:01:54.90 bitrate=N/A speed=7.68x    frame= 2838 fps=183 q=-0.0 size=N/A time=00:01:58.36 bitrate=N/A speed=7.65x    frame= 2950 fps=185 q=-0.0 size=N/A time=00:02:03.03 bitrate=N/A speed= 7.7x    frame= 3047 fps=185 q=-0.0 size=N/A time=00:02:07.08 bitrate=N/A speed= 7.7x    frame= 3141 fps=184 q=-0.0 size=N/A time=00:02:11.00 bitrate=N/A speed=7.69x    frame= 3240 fps=185 q=-0.0 size=N/A time=00:02:15.13 bitrate=N/A speed= 7.7x    frame= 3334 fps=185 q=-0.0 size=N/A time=00:02:19.05 bitrate=N/A speed= 7.7x    frame= 3429 fps=185 q=-0.0 size=N/A time=00:02:23.01 bitrate=N/A speed= 7.7x    frame= 3534 fps=185 q=-0.0 size=N/A time=00:02:27.39 bitrate=N/A speed=7.72x    frame= 3635 fps=185 q=-0.0 size=N/A time=00:02:31.60 bitrate=N/A speed=7.73x    frame= 3741 fps=186 q=-0.0 size=N/A time=00:02:36.03 bitrate=N/A speed=7.76x    frame= 3842 fps=186 q=-0.0 size=N/A time=00:02:40.24 bitrate=N/A speed=7.77x    frame= 3945 fps=186 q=-0.0 size=N/A time=00:02:44.53 bitrate=N/A speed=7.78x    frame= 4052 fps=187 q=-0.0 size=N/A time=00:02:49.00 bitrate=N/A speed= 7.8x    frame= 4155 fps=187 q=-0.0 size=N/A time=00:02:53.29 bitrate=N/A speed=7.81x    frame= 4263 fps=188 q=-0.0 size=N/A time=00:02:57.80 bitrate=N/A speed=7.83x    frame= 4361 fps=188 q=-0.0 size=N/A time=00:03:01.89 bitrate=N/A speed=7.84x    frame= 4466 fps=188 q=-0.0 size=N/A time=00:03:06.26 bitrate=N/A speed=7.85x    frame= 4561 fps=188 q=-0.0 size=N/A time=00:03:10.23 bitrate=N/A speed=7.84x    frame= 4665 fps=188 q=-0.0 size=N/A time=00:03:14.56 bitrate=N/A speed=7.86x    frame= 4766 fps=189 q=-0.0 size=N/A time=00:03:18.78 bitrate=N/A speed=7.87x    frame= 4872 fps=189 q=-0.0 size=N/A time=00:03:23.20 bitrate=N/A speed=7.88x    frame= 4972 fps=189 q=-0.0 size=N/A time=00:03:27.37 bitrate=N/A speed=7.88x    frame= 5068 fps=189 q=-0.0 size=N/A time=00:03:31.37 bitrate=N/A speed=7.88x    frame= 5171 fps=189 q=-0.0 size=N/A time=00:03:35.67 bitrate=N/A speed=7.89x    frame= 5279 fps=190 q=-0.0 size=N/A time=00:03:40.17 bitrate=N/A speed= 7.9x    frame= 5378 fps=190 q=-0.0 size=N/A time=00:03:44.30 bitrate=N/A speed=7.91x    frame= 5480 fps=190 q=-0.0 size=N/A time=00:03:48.56 bitrate=N/A speed=7.91x    frame= 5581 fps=190 q=-0.0 size=N/A time=00:03:52.77 bitrate=N/A speed=7.92x    frame= 5678 fps=190 q=-0.0 size=N/A time=00:03:56.81 bitrate=N/A speed=7.91x    frame= 5782 fps=190 q=-0.0 size=N/A time=00:04:01.15 bitrate=N/A speed=7.92x    frame= 5881 fps=190 q=-0.0 size=N/A time=00:04:05.28 bitrate=N/A speed=7.93x    frame= 5977 fps=190 q=-0.0 size=N/A time=00:04:09.29 bitrate=N/A speed=7.92x    frame= 6075 fps=190 q=-0.0 size=N/A time=00:04:13.37 bitrate=N/A speed=7.92x    frame= 6177 fps=190 q=-0.0 size=N/A time=00:04:17.63 bitrate=N/A speed=7.93x    frame= 6276 fps=190 q=-0.0 size=N/A time=00:04:21.76 bitrate=N/A speed=7.93x    frame= 6367 fps=190 q=-0.0 size=N/A time=00:04:25.55 bitrate=N/A speed=7.92x    frame= 6470 fps=190 q=-0.0 size=N/A time=00:04:29.85 bitrate=N/A speed=7.93x    frame= 6571 fps=190 q=-0.0 size=N/A time=00:04:34.06 bitrate=N/A speed=7.93x    frame= 6659 fps=190 q=-0.0 size=N/A time=00:04:37.73 bitrate=N/A speed=7.92x    frame= 6767 fps=190 q=-0.0 size=N/A time=00:04:42.24 bitrate=N/A speed=7.93x    frame= 6860 fps=190 q=-0.0 size=N/A time=00:04:46.11 bitrate=N/A speed=7.92x    frame= 6959 fps=190 q=-0.0 size=N/A time=00:04:50.24 bitrate=N/A speed=7.93x    frame= 7057 fps=190 q=-0.0 size=N/A time=00:04:54.33 bitrate=N/A speed=7.92x    frame= 7163 fps=190 q=-0.0 size=N/A time=00:04:58.75 bitrate=N/A speed=7.93x    frame= 7259 fps=190 q=-0.0 size=N/A time=00:05:02.76 bitrate=N/A speed=7.93x    frame= 7362 fps=190 q=-0.0 size=N/A time=00:05:07.05 bitrate=N/A speed=7.93x    frame= 7456 fps=190 q=-0.0 size=N/A time=00:05:10.97 bitrate=N/A speed=7.93x    frame= 7553 fps=190 q=-0.0 size=N/A time=00:05:15.02 bitrate=N/A speed=7.93x    frame= 7652 fps=190 q=-0.0 size=N/A time=00:05:19.15 bitrate=N/A speed=7.93x    frame= 7747 fps=190 q=-0.0 size=N/A time=00:05:23.11 bitrate=N/A speed=7.93x    frame= 7852 fps=190 q=-0.0 size=N/A time=00:05:27.49 bitrate=N/A speed=7.94x    frame= 7947 fps=190 q=-0.0 size=N/A time=00:05:31.45 bitrate=N/A speed=7.93x    frame= 8043 fps=190 q=-0.0 size=N/A time=00:05:35.46 bitrate=N/A speed=7.93x    frame= 8140 fps=190 q=-0.0 size=N/A time=00:05:39.50 bitrate=N/A speed=7.93x    frame= 8237 fps=190 q=-0.0 size=N/A time=00:05:43.55 bitrate=N/A speed=7.93x    frame= 8335 fps=190 q=-0.0 size=N/A time=00:05:47.63 bitrate=N/A speed=7.93x    frame= 8437 fps=190 q=-0.0 size=N/A time=00:05:51.89 bitrate=N/A speed=7.93x    frame= 8531 fps=190 q=-0.0 size=N/A time=00:05:55.81 bitrate=N/A speed=7.93x    frame= 8625 fps=190 q=-0.0 size=N/A time=00:05:59.73 bitrate=N/A speed=7.92x    frame= 8725 fps=190 q=-0.0 size=N/A time=00:06:03.90 bitrate=N/A speed=7.92x    frame= 8823 fps=190 q=-0.0 size=N/A time=00:06:07.99 bitrate=N/A speed=7.93x    frame= 8917 fps=190 q=-0.0 size=N/A time=00:06:11.91 bitrate=N/A speed=7.92x    frame= 9015 fps=190 q=-0.0 size=N/A time=00:06:16.00 bitrate=N/A speed=7.92x    frame= 9120 fps=190 q=-0.0 size=N/A time=00:06:20.38 bitrate=N/A speed=7.93x    frame= 9216 fps=190 q=-0.0 size=N/A time=00:06:24.38 bitrate=N/A speed=7.93x    frame= 9303 fps=190 q=-0.0 size=N/A time=00:06:28.01 bitrate=N/A speed=7.92x    frame= 9405 fps=190 q=-0.0 size=N/A time=00:06:32.26 bitrate=N/A speed=7.92x    frame= 9510 fps=190 q=-0.0 size=N/A time=00:06:36.64 bitrate=N/A speed=7.93x    frame= 9608 fps=190 q=-0.0 size=N/A time=00:06:40.73 bitrate=N/A speed=7.93x    frame= 9703 fps=190 q=-0.0 size=N/A time=00:06:44.69 bitrate=N/A speed=7.92x    frame= 9800 fps=190 q=-0.0 size=N/A time=00:06:48.74 bitrate=N/A speed=7.92x    frame= 9895 fps=190 q=-0.0 size=N/A time=00:06:52.70 bitrate=N/A speed=7.92x    frame=10000 fps=190 q=-0.0 size=N/A time=00:06:57.08 bitrate=N/A speed=7.93x    frame=10103 fps=190 q=-0.0 size=N/A time=00:07:01.37 bitrate=N/A speed=7.93x    frame=10202 fps=190 q=-0.0 size=N/A time=00:07:05.50 bitrate=N/A speed=7.93x    frame=10301 fps=190 q=-0.0 size=N/A time=00:07:09.63 bitrate=N/A speed=7.93x    frame=10403 fps=190 q=-0.0 size=N/A time=00:07:13.89 bitrate=N/A speed=7.93x    frame=10498 fps=190 q=-0.0 size=N/A time=00:07:17.85 bitrate=N/A speed=7.93x    frame=10593 fps=190 q=-0.0 size=N/A time=00:07:21.81 bitrate=N/A speed=7.93x    frame=10694 fps=190 q=-0.0 size=N/A time=00:07:26.02 bitrate=N/A speed=7.93x    frame=10793 fps=190 q=-0.0 size=N/A time=00:07:30.15 bitrate=N/A speed=7.93x    frame=10888 fps=190 q=-0.0 size=N/A time=00:07:34.12 bitrate=N/A speed=7.93x    frame=10988 fps=190 q=-0.0 size=N/A time=00:07:38.29 bitrate=N/A speed=7.93x    frame=11083 fps=190 q=-0.0 size=N/A time=00:07:42.25 bitrate=N/A speed=7.93x    frame=11186 fps=190 q=-0.0 size=N/A time=00:07:46.54 bitrate=N/A speed=7.93x    frame=11281 fps=190 q=-0.0 size=N/A time=00:07:50.51 bitrate=N/A speed=7.93x    frame=11380 fps=190 q=-0.0 size=N/A time=00:07:54.64 bitrate=N/A speed=7.93x    frame=11479 fps=190 q=-0.0 size=N/A time=00:07:58.76 bitrate=N/A speed=7.93x    frame=11579 fps=190 q=-0.0 size=N/A time=00:08:02.94 bitrate=N/A speed=7.93x    frame=11680 fps=190 q=-0.0 size=N/A time=00:08:07.15 bitrate=N/A speed=7.93x    frame=11774 fps=190 q=-0.0 size=N/A time=00:08:11.07 bitrate=N/A speed=7.93x    frame=11865 fps=190 q=-0.0 size=N/A time=00:08:14.86 bitrate=N/A speed=7.93x    frame=11966 fps=190 q=-0.0 size=N/A time=00:08:19.08 bitrate=N/A speed=7.93x    frame=12066 fps=190 q=-0.0 size=N/A time=00:08:23.25 bitrate=N/A speed=7.93x    frame=12168 fps=190 q=-0.0 size=N/A time=00:08:27.50 bitrate=N/A speed=7.93x    frame=12263 fps=190 q=-0.0 size=N/A time=00:08:31.46 bitrate=N/A speed=7.93x    frame=12354 fps=190 q=-0.0 size=N/A time=00:08:35.26 bitrate=N/A speed=7.93x    frame=12453 fps=190 q=-0.0 size=N/A time=00:08:39.39 bitrate=N/A speed=7.93x    frame=12551 fps=190 q=-0.0 size=N/A time=00:08:43.48 bitrate=N/A speed=7.93x    frame=12644 fps=190 q=-0.0 size=N/A time=00:08:47.36 bitrate=N/A speed=7.92x    frame=12745 fps=190 q=-0.0 size=N/A time=00:08:51.57 bitrate=N/A speed=7.93x    frame=12848 fps=190 q=-0.0 size=N/A time=00:08:55.86 bitrate=N/A speed=7.93x    frame=12939 fps=190 q=-0.0 size=N/A time=00:08:59.66 bitrate=N/A speed=7.92x    frame=13033 fps=190 q=-0.0 size=N/A time=00:09:03.58 bitrate=N/A speed=7.92x    frame=13133 fps=190 q=-0.0 size=N/A time=00:09:07.75 bitrate=N/A speed=7.92x    frame=13238 fps=190 q=-0.0 size=N/A time=00:09:12.13 bitrate=N/A speed=7.93x    frame=13332 fps=190 q=-0.0 size=N/A time=00:09:16.05 bitrate=N/A speed=7.93x    frame=13438 fps=190 q=-0.0 size=N/A time=00:09:20.47 bitrate=N/A speed=7.93x    frame=13532 fps=190 q=-0.0 size=N/A time=00:09:24.39 bitrate=N/A speed=7.93x    frame=13633 fps=190 q=-0.0 size=N/A time=00:09:28.60 bitrate=N/A speed=7.93x    frame=13728 fps=190 q=-0.0 size=N/A time=00:09:32.57 bitrate=N/A speed=7.93x    frame=13824 fps=190 q=-0.0 size=N/A time=00:09:36.57 bitrate=N/A speed=7.93x    frame=13924 fps=190 q=-0.0 size=N/A time=00:09:40.74 bitrate=N/A speed=7.93x    frame=14032 fps=190 q=-0.0 size=N/A time=00:09:45.25 bitrate=N/A speed=7.93x    frame=14130 fps=190 q=-0.0 size=N/A time=00:09:49.33 bitrate=N/A speed=7.93x    frame=14229 fps=190 q=-0.0 size=N/A time=00:09:53.46 bitrate=N/A speed=7.93x    frame=14333 fps=190 q=-0.0 size=N/A time=00:09:57.80 bitrate=N/A speed=7.94x    frame=14428 fps=190 q=-0.0 size=N/A time=00:10:01.76 bitrate=N/A speed=7.93x    frame=14519 fps=190 q=-0.0 size=N/A time=00:10:05.56 bitrate=N/A speed=7.93x    frame=14626 fps=190 q=-0.0 size=N/A time=00:10:10.02 bitrate=N/A speed=7.94x    frame=14720 fps=190 q=-0.0 size=N/A time=00:10:13.94 bitrate=N/A speed=7.93x    frame=14821 fps=190 q=-0.0 size=N/A time=00:10:18.15 bitrate=N/A speed=7.93x    frame=14918 fps=190 q=-0.0 size=N/A time=00:10:22.20 bitrate=N/A speed=7.93x    frame=15015 fps=190 q=-0.0 size=N/A time=00:10:26.25 bitrate=N/A speed=7.93x    frame=15111 fps=190 q=-0.0 size=N/A time=00:10:30.25 bitrate=N/A speed=7.93x    frame=15198 fps=190 q=-0.0 size=N/A time=00:10:33.88 bitrate=N/A speed=7.93x    frame=15302 fps=190 q=-0.0 size=N/A time=00:10:38.22 bitrate=N/A speed=7.93x    frame=15405 fps=190 q=-0.0 size=N/A time=00:10:42.51 bitrate=N/A speed=7.93x    frame=15500 fps=190 q=-0.0 size=N/A time=00:10:46.47 bitrate=N/A speed=7.93x    frame=15580 fps=190 q=-0.0 size=N/A time=00:10:49.81 bitrate=N/A speed=7.92x    frame=15690 fps=190 q=-0.0 size=N/A time=00:10:54.40 bitrate=N/A speed=7.93x    frame=15781 fps=190 q=-0.0 size=N/A time=00:10:58.19 bitrate=N/A speed=7.92x    frame=15884 fps=190 q=-0.0 size=N/A time=00:11:02.49 bitrate=N/A speed=7.93x    frame=15977 fps=190 q=-0.0 size=N/A time=00:11:06.37 bitrate=N/A speed=7.93x    frame=16071 fps=190 q=-0.0 size=N/A time=00:11:10.29 bitrate=N/A speed=7.92x    frame=16172 fps=190 q=-0.0 size=N/A time=00:11:14.50 bitrate=N/A speed=7.92x    frame=16272 fps=190 q=-0.0 size=N/A time=00:11:18.67 bitrate=N/A speed=7.93x    frame=16374 fps=190 q=-0.0 size=N/A time=00:11:22.93 bitrate=N/A speed=7.93x    frame=16474 fps=190 q=-0.0 size=N/A time=00:11:27.10 bitrate=N/A speed=7.93x    frame=16571 fps=190 q=-0.0 size=N/A time=00:11:31.14 bitrate=N/A speed=7.93x    frame=16670 fps=190 q=-0.0 size=N/A time=00:11:35.27 bitrate=N/A speed=7.93x    frame=16766 fps=190 q=-0.0 size=N/A time=00:11:39.28 bitrate=N/A speed=7.93x    frame=16874 fps=190 q=-0.0 size=N/A time=00:11:43.78 bitrate=N/A speed=7.93x    frame=16961 fps=190 q=-0.0 size=N/A time=00:11:47.41 bitrate=N/A speed=7.93x    frame=17066 fps=190 q=-0.0 size=N/A time=00:11:51.79 bitrate=N/A speed=7.93x    frame=17156 fps=190 q=-0.0 size=N/A time=00:11:55.54 bitrate=N/A speed=7.93x    frame=17242 fps=190 q=-0.0 size=N/A time=00:11:59.13 bitrate=N/A speed=7.92x    frame=17347 fps=190 q=-0.0 size=N/A time=00:12:03.51 bitrate=N/A speed=7.92x    frame=17442 fps=190 q=-0.0 size=N/A time=00:12:07.47 bitrate=N/A speed=7.92x    frame=17541 fps=190 q=-0.0 size=N/A time=00:12:11.60 bitrate=N/A speed=7.92x    frame=17636 fps=190 q=-0.0 size=N/A time=00:12:15.56 bitrate=N/A speed=7.92x    frame=17730 fps=190 q=-0.0 size=N/A time=00:12:19.48 bitrate=N/A speed=7.92x    frame=17837 fps=190 q=-0.0 size=N/A time=00:12:23.95 bitrate=N/A speed=7.92x    frame=17930 fps=190 q=-0.0 size=N/A time=00:12:27.83 bitrate=N/A speed=7.92x    frame=18030 fps=190 q=-0.0 size=N/A time=00:12:32.00 bitrate=N/A speed=7.92x    frame=18123 fps=190 q=-0.0 size=N/A time=00:12:35.88 bitrate=N/A speed=7.92x    frame=18213 fps=190 q=-0.0 size=N/A time=00:12:39.63 bitrate=N/A speed=7.92x    frame=18319 fps=190 q=-0.0 size=N/A time=00:12:44.05 bitrate=N/A speed=7.92x    frame=18420 fps=190 q=-0.0 size=N/A time=00:12:48.26 bitrate=N/A speed=7.92x    frame=18519 fps=190 q=-0.0 size=N/A time=00:12:52.39 bitrate=N/A speed=7.92x    frame=18620 fps=190 q=-0.0 size=N/A time=00:12:56.60 bitrate=N/A speed=7.92x    frame=18714 fps=190 q=-0.0 size=N/A time=00:13:00.52 bitrate=N/A speed=7.92x    frame=18819 fps=190 q=-0.0 size=N/A time=00:13:04.90 bitrate=N/A speed=7.92x    frame=18924 fps=190 q=-0.0 size=N/A time=00:13:09.28 bitrate=N/A speed=7.93x    frame=19026 fps=190 q=-0.0 size=N/A time=00:13:13.54 bitrate=N/A speed=7.93x    frame=19128 fps=190 q=-0.0 size=N/A time=00:13:17.79 bitrate=N/A speed=7.93x    frame=19224 fps=190 q=-0.0 size=N/A time=00:13:21.80 bitrate=N/A speed=7.93x    frame=19326 fps=190 q=-0.0 size=N/A time=00:13:26.05 bitrate=N/A speed=7.93x    frame=19421 fps=190 q=-0.0 size=N/A time=00:13:30.01 bitrate=N/A speed=7.93x    frame=19520 fps=190 q=-0.0 size=N/A time=00:13:34.14 bitrate=N/A speed=7.93x    frame=19616 fps=190 q=-0.0 size=N/A time=00:13:38.15 bitrate=N/A speed=7.93x    frame=19715 fps=190 q=-0.0 size=N/A time=00:13:42.27 bitrate=N/A speed=7.93x    frame=19820 fps=190 q=-0.0 size=N/A time=00:13:46.65 bitrate=N/A speed=7.93x    frame=19919 fps=190 q=-0.0 size=N/A time=00:13:50.78 bitrate=N/A speed=7.93x    frame=20015 fps=190 q=-0.0 size=N/A time=00:13:54.79 bitrate=N/A speed=7.93x    frame=20108 fps=190 q=-0.0 size=N/A time=00:13:58.67 bitrate=N/A speed=7.93x    frame=20213 fps=190 q=-0.0 size=N/A time=00:14:03.05 bitrate=N/A speed=7.93x    frame=20314 fps=190 q=-0.0 size=N/A time=00:14:07.26 bitrate=N/A speed=7.93x    frame=20412 fps=190 q=-0.0 size=N/A time=00:14:11.35 bitrate=N/A speed=7.93x    frame=20513 fps=190 q=-0.0 size=N/A time=00:14:15.56 bitrate=N/A speed=7.93x    frame=20614 fps=190 q=-0.0 size=N/A time=00:14:19.77 bitrate=N/A speed=7.93x    frame=20707 fps=190 q=-0.0 size=N/A time=00:14:23.65 bitrate=N/A speed=7.93x    frame=20800 fps=190 q=-0.0 size=N/A time=00:14:27.53 bitrate=N/A speed=7.93x    frame=20898 fps=190 q=-0.0 size=N/A time=00:14:31.62 bitrate=N/A speed=7.93x    frame=21003 fps=190 q=-0.0 size=N/A time=00:14:36.00 bitrate=N/A speed=7.93x    frame=21099 fps=190 q=-0.0 size=N/A time=00:14:40.00 bitrate=N/A speed=7.93x    frame=21196 fps=190 q=-0.0 size=N/A time=00:14:44.04 bitrate=N/A speed=7.93x    frame=21299 fps=190 q=-0.0 size=N/A time=00:14:48.34 bitrate=N/A speed=7.93x    frame=21398 fps=190 q=-0.0 size=N/A time=00:14:52.47 bitrate=N/A speed=7.93x    frame=21498 fps=190 q=-0.0 size=N/A time=00:14:56.64 bitrate=N/A speed=7.93x    frame=21591 fps=190 q=-0.0 size=N/A time=00:15:00.52 bitrate=N/A speed=7.93x    frame=21692 fps=190 q=-0.0 size=N/A time=00:15:04.73 bitrate=N/A speed=7.93x    frame=21794 fps=190 q=-0.0 size=N/A time=00:15:08.99 bitrate=N/A speed=7.93x    frame=21892 fps=190 q=-0.0 size=N/A time=00:15:13.07 bitrate=N/A speed=7.94x    frame=21989 fps=190 q=-0.0 size=N/A time=00:15:17.12 bitrate=N/A speed=7.93x    frame=22092 fps=190 q=-0.0 size=N/A time=00:15:21.42 bitrate=N/A speed=7.94x    frame=22180 fps=190 q=-0.0 size=N/A time=00:15:25.09 bitrate=N/A speed=7.93x    frame=22280 fps=190 q=-0.0 size=N/A time=00:15:29.26 bitrate=N/A speed=7.93x    frame=22380 fps=190 q=-0.0 size=N/A time=00:15:33.43 bitrate=N/A speed=7.93x    frame=22481 fps=190 q=-0.0 size=N/A time=00:15:37.64 bitrate=N/A speed=7.93x    frame=22580 fps=190 q=-0.0 size=N/A time=00:15:41.77 bitrate=N/A speed=7.94x    frame=22680 fps=190 q=-0.0 size=N/A time=00:15:45.94 bitrate=N/A speed=7.94x    frame=22780 fps=190 q=-0.0 size=N/A time=00:15:50.11 bitrate=N/A speed=7.94x    frame=22878 fps=190 q=-0.0 size=N/A time=00:15:54.20 bitrate=N/A speed=7.94x    frame=22979 fps=190 q=-0.0 size=N/A time=00:15:58.41 bitrate=N/A speed=7.94x    frame=23081 fps=190 q=-0.0 size=N/A time=00:16:02.67 bitrate=N/A speed=7.94x    frame=23181 fps=190 q=-0.0 size=N/A time=00:16:06.84 bitrate=N/A speed=7.94x    frame=23281 fps=190 q=-0.0 size=N/A time=00:16:11.01 bitrate=N/A speed=7.94x    frame=23375 fps=190 q=-0.0 size=N/A time=00:16:14.93 bitrate=N/A speed=7.94x    frame=23470 fps=190 q=-0.0 size=N/A time=00:16:18.89 bitrate=N/A speed=7.94x    frame=23564 fps=190 q=-0.0 size=N/A time=00:16:22.81 bitrate=N/A speed=7.94x    frame=23661 fps=190 q=-0.0 size=N/A time=00:16:26.86 bitrate=N/A speed=7.94x    frame=23754 fps=190 q=-0.0 size=N/A time=00:16:30.73 bitrate=N/A speed=7.93x    frame=23848 fps=190 q=-0.0 size=N/A time=00:16:34.66 bitrate=N/A speed=7.93x    frame=23951 fps=190 q=-0.0 size=N/A time=00:16:38.95 bitrate=N/A speed=7.93x    frame=24051 fps=190 q=-0.0 size=N/A time=00:16:43.12 bitrate=N/A speed=7.94x    frame=24151 fps=190 q=-0.0 size=N/A time=00:16:47.29 bitrate=N/A speed=7.94x    frame=24248 fps=190 q=-0.0 size=N/A time=00:16:51.34 bitrate=N/A speed=7.93x    frame=24344 fps=190 q=-0.0 size=N/A time=00:16:55.34 bitrate=N/A speed=7.93x    frame=24442 fps=190 q=-0.0 size=N/A time=00:16:59.43 bitrate=N/A speed=7.93x    frame=24541 fps=190 q=-0.0 size=N/A time=00:17:03.56 bitrate=N/A speed=7.93x    frame=24639 fps=190 q=-0.0 size=N/A time=00:17:07.65 bitrate=N/A speed=7.93x    frame=24731 fps=190 q=-0.0 size=N/A time=00:17:11.48 bitrate=N/A speed=7.93x    frame=24824 fps=190 q=-0.0 size=N/A time=00:17:15.36 bitrate=N/A speed=7.93x    frame=24925 fps=190 q=-0.0 size=N/A time=00:17:19.58 bitrate=N/A speed=7.93x    frame=25024 fps=190 q=-0.0 size=N/A time=00:17:23.70 bitrate=N/A speed=7.93x    frame=25113 fps=190 q=-0.0 size=N/A time=00:17:27.42 bitrate=N/A speed=7.93x    frame=25221 fps=190 q=-0.0 size=N/A time=00:17:31.92 bitrate=N/A speed=7.93x    frame=25319 fps=190 q=-0.0 size=N/A time=00:17:36.01 bitrate=N/A speed=7.93x    frame=25418 fps=190 q=-0.0 size=N/A time=00:17:40.14 bitrate=N/A speed=7.93x    frame=25521 fps=190 q=-0.0 size=N/A time=00:17:44.43 bitrate=N/A speed=7.93x    frame=25623 fps=190 q=-0.0 size=N/A time=00:17:48.69 bitrate=N/A speed=7.94x    frame=25721 fps=190 q=-0.0 size=N/A time=00:17:52.78 bitrate=N/A speed=7.94x    frame=25823 fps=190 q=-0.0 size=N/A time=00:17:57.03 bitrate=N/A speed=7.94x    frame=25914 fps=190 q=-0.0 size=N/A time=00:18:00.82 bitrate=N/A speed=7.93x    frame=26007 fps=190 q=-0.0 size=N/A time=00:18:04.70 bitrate=N/A speed=7.93x    frame=26114 fps=190 q=-0.0 size=N/A time=00:18:09.17 bitrate=N/A speed=7.94x    frame=26207 fps=190 q=-0.0 size=N/A time=00:18:13.05 bitrate=N/A speed=7.93x    frame=26308 fps=190 q=-0.0 size=N/A time=00:18:17.26 bitrate=N/A speed=7.94x    frame=26403 fps=190 q=-0.0 size=N/A time=00:18:21.22 bitrate=N/A speed=7.93x    frame=26493 fps=190 q=-0.0 size=N/A time=00:18:24.97 bitrate=N/A speed=7.93x    frame=26603 fps=190 q=-0.0 size=N/A time=00:18:29.56 bitrate=N/A speed=7.94x    frame=26694 fps=190 q=-0.0 size=N/A time=00:18:33.36 bitrate=N/A speed=7.93x    frame=26800 fps=190 q=-0.0 size=N/A time=00:18:37.78 bitrate=N/A speed=7.94x    frame=26899 fps=190 q=-0.0 size=N/A time=00:18:41.91 bitrate=N/A speed=7.94x    frame=26997 fps=190 q=-0.0 size=N/A time=00:18:45.99 bitrate=N/A speed=7.94x    frame=27100 fps=190 q=-0.0 size=N/A time=00:18:50.29 bitrate=N/A speed=7.94x    frame=27198 fps=190 q=-0.0 size=N/A time=00:18:54.38 bitrate=N/A speed=7.94x    frame=27297 fps=190 q=-0.0 size=N/A time=00:18:58.51 bitrate=N/A speed=7.94x    frame=27393 fps=190 q=-0.0 size=N/A time=00:19:02.51 bitrate=N/A speed=7.94x    frame=27491 fps=190 q=-0.0 size=N/A time=00:19:06.60 bitrate=N/A speed=7.94x    frame=27589 fps=190 q=-0.0 size=N/A time=00:19:10.69 bitrate=N/A speed=7.94x    frame=27687 fps=190 q=-0.0 size=N/A time=00:19:14.77 bitrate=N/A speed=7.94x    frame=27790 fps=190 q=-0.0 size=N/A time=00:19:19.07 bitrate=N/A speed=7.94x    frame=27877 fps=190 q=-0.0 size=N/A time=00:19:22.70 bitrate=N/A speed=7.94x    frame=27987 fps=190 q=-0.0 size=N/A time=00:19:27.29 bitrate=N/A speed=7.94x    frame=28077 fps=190 q=-0.0 size=N/A time=00:19:31.04 bitrate=N/A speed=7.94x    frame=28172 fps=190 q=-0.0 size=N/A time=00:19:35.00 bitrate=N/A speed=7.94x    frame=28270 fps=190 q=-0.0 size=N/A time=00:19:39.09 bitrate=N/A speed=7.94x    frame=28365 fps=190 q=-0.0 size=N/A time=00:19:43.05 bitrate=N/A speed=7.93x    frame=28463 fps=190 q=-0.0 size=N/A time=00:19:47.14 bitrate=N/A speed=7.93x    frame=28563 fps=190 q=-0.0 size=N/A time=00:19:51.31 bitrate=N/A speed=7.93x    frame=28656 fps=190 q=-0.0 size=N/A time=00:19:55.19 bitrate=N/A speed=7.93x    frame=28759 fps=190 q=-0.0 size=N/A time=00:19:59.48 bitrate=N/A speed=7.94x    frame=28860 fps=190 q=-0.0 size=N/A time=00:20:03.70 bitrate=N/A speed=7.94x    frame=28957 fps=190 q=-0.0 size=N/A time=00:20:07.74 bitrate=N/A speed=7.94x    frame=29057 fps=190 q=-0.0 size=N/A time=00:20:11.91 bitrate=N/A speed=7.94x    frame=29158 fps=190 q=-0.0 size=N/A time=00:20:16.13 bitrate=N/A speed=7.94x    frame=29253 fps=190 q=-0.0 size=N/A time=00:20:20.09 bitrate=N/A speed=7.94x    frame=29357 fps=190 q=-0.0 size=N/A time=00:20:24.43 bitrate=N/A speed=7.94x    frame=29457 fps=190 q=-0.0 size=N/A time=00:20:28.60 bitrate=N/A speed=7.94x    frame=29555 fps=190 q=-0.0 size=N/A time=00:20:32.68 bitrate=N/A speed=7.94x    frame=29651 fps=190 q=-0.0 size=N/A time=00:20:36.69 bitrate=N/A speed=7.94x    frame=29749 fps=190 q=-0.0 size=N/A time=00:20:40.78 bitrate=N/A speed=7.94x    frame=29846 fps=190 q=-0.0 size=N/A time=00:20:44.82 bitrate=N/A speed=7.94x    frame=29932 fps=190 q=-0.0 size=N/A time=00:20:48.41 bitrate=N/A speed=7.93x    frame=30038 fps=190 q=-0.0 size=N/A time=00:20:52.83 bitrate=N/A speed=7.94x    frame=30137 fps=190 q=-0.0 size=N/A time=00:20:56.96 bitrate=N/A speed=7.94x    frame=30237 fps=190 q=-0.0 size=N/A time=00:21:01.13 bitrate=N/A speed=7.94x    frame=30339 fps=190 q=-0.0 size=N/A time=00:21:05.38 bitrate=N/A speed=7.94x    frame=30441 fps=190 q=-0.0 size=N/A time=00:21:09.64 bitrate=N/A speed=7.94x    frame=30538 fps=190 q=-0.0 size=N/A time=00:21:13.68 bitrate=N/A speed=7.94x    frame=30636 fps=190 q=-0.0 size=N/A time=00:21:17.77 bitrate=N/A speed=7.94x    frame=30732 fps=190 q=-0.0 size=N/A time=00:21:21.78 bitrate=N/A speed=7.94x    frame=30830 fps=190 q=-0.0 size=N/A time=00:21:25.86 bitrate=N/A speed=7.94x    frame=30928 fps=190 q=-0.0 size=N/A time=00:21:29.95 bitrate=N/A speed=7.94x    frame=31027 fps=190 q=-0.0 size=N/A time=00:21:34.08 bitrate=N/A speed=7.94x    frame=31125 fps=190 q=-0.0 size=N/A time=00:21:38.17 bitrate=N/A speed=7.94x    frame=31222 fps=190 q=-0.0 size=N/A time=00:21:42.21 bitrate=N/A speed=7.94x    frame=31318 fps=190 q=-0.0 size=N/A time=00:21:46.22 bitrate=N/A speed=7.94x    frame=31412 fps=190 q=-0.0 size=N/A time=00:21:50.14 bitrate=N/A speed=7.94x    frame=31507 fps=190 q=-0.0 size=N/A time=00:21:54.10 bitrate=N/A speed=7.93x    frame=31612 fps=190 q=-0.0 size=N/A time=00:21:58.48 bitrate=N/A speed=7.94x    frame=31712 fps=190 q=-0.0 size=N/A time=00:22:02.65 bitrate=N/A speed=7.94x    frame=31809 fps=190 q=-0.0 size=N/A time=00:22:06.70 bitrate=N/A speed=7.94x    frame=31905 fps=190 q=-0.0 size=N/A time=00:22:10.70 bitrate=N/A speed=7.94x    frame=31988 fps=190 q=-0.0 size=N/A time=00:22:14.16 bitrate=N/A speed=7.93x    frame=32097 fps=190 q=-0.0 size=N/A time=00:22:18.71 bitrate=N/A speed=7.93x    frame=32192 fps=190 q=-0.0 size=N/A time=00:22:22.67 bitrate=N/A speed=7.93x    frame=32298 fps=190 q=-0.0 size=N/A time=00:22:27.09 bitrate=N/A speed=7.94x    frame=32384 fps=190 q=-0.0 size=N/A time=00:22:30.68 bitrate=N/A speed=7.93x    frame=32492 fps=190 q=-0.0 size=N/A time=00:22:35.18 bitrate=N/A speed=7.94x    frame=32587 fps=190 q=-0.0 size=N/A time=00:22:39.14 bitrate=N/A speed=7.93x    frame=32681 fps=190 q=-0.0 size=N/A time=00:22:43.07 bitrate=N/A speed=7.93x    frame=32783 fps=190 q=-0.0 size=N/A time=00:22:47.32 bitrate=N/A speed=7.93x    frame=32883 fps=190 q=-0.0 size=N/A time=00:22:51.49 bitrate=N/A speed=7.93x    frame=32981 fps=190 q=-0.0 size=N/A time=00:22:55.58 bitrate=N/A speed=7.94x    frame=33077 fps=190 q=-0.0 size=N/A time=00:22:59.58 bitrate=N/A speed=7.93x    frame=33169 fps=190 q=-0.0 size=N/A time=00:23:03.42 bitrate=N/A speed=7.93x    frame=33255 fps=190 q=-0.0 size=N/A time=00:23:07.01 bitrate=N/A speed=7.93x    frame=33362 fps=190 q=-0.0 size=N/A time=00:23:11.47 bitrate=N/A speed=7.93x    frame=33456 fps=190 q=-0.0 size=N/A time=00:23:15.39 bitrate=N/A speed=7.93x    frame=33566 fps=190 q=-0.0 size=N/A time=00:23:19.98 bitrate=N/A speed=7.93x    frame=33665 fps=190 q=-0.0 size=N/A time=00:23:24.11 bitrate=N/A speed=7.93x    frame=33768 fps=190 q=-0.0 size=N/A time=00:23:28.40 bitrate=N/A speed=7.93x    frame=33865 fps=190 q=-0.0 size=N/A time=00:23:32.45 bitrate=N/A speed=7.93x    frame=33964 fps=190 q=-0.0 size=N/A time=00:23:36.58 bitrate=N/A speed=7.93x    frame=34059 fps=190 q=-0.0 size=N/A time=00:23:40.54 bitrate=N/A speed=7.93x    [Parsed_psnr_10 @ 000001bf4309e580] PSNR y:44.819067 u:50.007576 v:49.751938 average:45.950449 min:36.528052 max:inf
[out#0/null @ 000001bf414fef00] video:14650KiB audio:266636KiB subtitle:0KiB other streams:0KiB global headers:0KiB muxing overhead: unknown
frame=34094 fps=190 q=-0.0 Lsize=N/A time=00:23:42.00 bitrate=N/A speed=7.93x    
